# Obj file Generated by Strata CX
#  Vertices: 121
#     Faces: 214
#       UVs: 122
#   Normals: 199
# Materials: 0

v 2.153646 3.407366 -0.990394
v 75.554825 -21.350279 -14.023944
v 2.153646 -23.254715 65.806549
v 50.388718 -103.240944 64.177353
v 90.235069 -15.636976 -18.911522
v 56.680244 7.216231 -2.619581
v -73.344727 -21.350279 -14.023944
v -48.178600 -103.240944 64.177353
v -48.178600 7.216231 -2.619581
v -88.024956 -15.636976 -18.911522
v 29.416945 47.209354 57.660576
v 2.153646 68.158127 49.514606
v 2.153646 71.966995 67.435745
v 31.514126 35.782749 31.593483
v 54.583061 -15.636976 26.705898
v -27.206825 35.782749 31.593483
v -52.372948 -15.636976 26.705898
v -27.206825 47.209354 57.660576
v 29.416945 62.444817 165.187378
v 2.153646 85.298035 152.153809
v 2.153646 73.871429 170.074936
v 29.416945 35.782749 173.333344
v -27.206825 62.444817 165.187378
v -27.206825 35.782749 173.333344
v 39.902824 62.444817 122.828331
v 2.153646 91.011330 116.311569
v 33.611298 -2.305939 140.749451
v 2.153646 -11.828109 166.816559
v 2.153646 -23.254715 144.007843
v -31.401178 -2.305939 140.749451
v -37.692715 62.444817 122.828331
v 42.000004 52.922653 83.727676
v 2.153646 83.393608 85.356873
v 46.194363 -2.305939 59.289776
v 2.153646 -28.968025 104.907196
v -43.984245 -2.305939 59.289776
v -39.789894 52.922653 83.727676
v 0.056469 161.475403 5.526379
v 0.056469 155.762115 31.593483
v 10.542354 150.048828 34.851868
v 31.514126 142.431076 16.930735
v 10.542354 140.526642 41.368645
v 35.708477 121.482292 26.705898
v 0.056469 127.195595 47.885418
v 0.056469 113.864540 49.514606
v -8.332235 140.526642 41.368645
v -33.498356 121.482292 26.705898
v -8.332235 150.048828 34.851868
v -29.304003 142.431076 16.930735
v 44.097179 127.195595 -18.911522
v 0.056469 144.335510 -40.091038
v 39.902824 108.151260 12.043157
v 0.056469 87.202469 47.885418
v -37.692715 108.151260 12.043157
v -41.887066 127.195595 -18.911522
v 0.056469 96.724640 -53.124599
v 39.902824 92.915771 -31.945074
v 35.708477 83.393608 12.043157
v 0.056469 81.489166 47.885418
v -33.498356 83.393608 12.043157
v -37.692715 92.915771 -31.945074
v 39.902824 62.444817 28.335091
v 2.153646 73.871429 47.885418
v -35.595535 62.444817 28.335091
v -39.789894 45.304916 -12.394746
v 2.153646 51.018215 -41.720226
v 44.097179 45.304916 -12.394746
v 2.153646 30.069447 194.512848
v 25.222595 71.966995 184.737701
v -23.012474 71.966995 184.737701
v 2.153646 87.202469 186.366882
v 2.153646 94.820213 214.063171
v 29.416945 102.437943 204.287994
v -27.206825 102.437943 204.287994
v 2.153646 110.055672 197.771225
v 44.097179 148.144379 222.209122
v 2.153646 191.946381 212.433975
v -41.887066 148.144379 222.209122
v 2.153646 178.615326 191.254471
v 2.153646 228.130615 181.479294
v 75.554825 -28.968025 39.739452
v 52.485889 -15.636976 26.705898
v 48.291538 -103.240944 64.177353
v 88.137894 -15.636976 -18.911522
v 52.485889 7.216231 -2.619581
v -75.441902 -28.968025 39.739452
v -138.357193 -194.653793 54.402187
v -167.717651 -68.961143 -88.966850
v -255.799103 -126.094170 -137.842651
v -241.118881 -257.500122 -51.495396
v -266.285004 -244.169083 -193.235245
v 138.470139 -194.653793 54.402187
v 165.733429 -68.961143 -88.966850
v 253.814896 -126.094170 -137.842651
v 239.134659 -257.500122 -51.495396
v 268.495087 -244.169083 -193.235245
v 0.056469 172.902023 41.368645
v 0.056469 153.857666 29.964285
v -6.235061 165.284256 46.256222
v -8.332235 150.048828 33.222675
v 10.542354 150.048828 33.222675
v 8.445176 165.284256 46.256222
v 8.445176 161.475403 52.772999
v 0.056469 125.291145 47.885418
v 0.056469 148.144379 57.660576
v -6.235061 161.475403 52.772999
v 0.056469 193.850784 54.402187
v -4.137883 191.946381 60.918964
v 6.348001 191.946381 60.918964
v 6.348001 190.041931 64.177353
v 0.056469 188.137482 65.806549
v -4.137883 190.041931 64.177353
v 0.056469 222.417297 78.840096
v -159.328979 -78.483307 -80.820892
v -245.313232 -145.138489 -137.842651
v 159.441879 -78.483307 -80.820892
v 140.567307 -194.653793 54.402187
v 167.830612 -68.961143 -88.966850
v 247.523346 -145.138489 -137.842651
v 243.328995 -257.500122 -51.495396
v 255.912033 -126.094170 -137.842651

vt 0.714844 0.988281
vt 0.679688 0.921875
vt 0.875000 0.898438
vt 0.957031 0.761719
vt 0.671875 0.941406
vt 0.714844 1.000000
vt 0.675781 0.921875
vt 0.871094 0.898438
vt 0.953125 0.761719
vt 0.710938 0.988281
vt 0.707031 1.000000
vt 0.667969 0.941406
vt 0.191406 0.562500
vt 0.246094 0.585938
vt 0.250000 0.527344
vt 0.167969 0.652344
vt 0.035156 0.671875
vt 0.097656 0.765625
vt 0.214844 0.234375
vt 0.269531 0.246094
vt 0.238281 0.183594
vt 0.167969 0.210938
vt 0.218750 0.339844
vt 0.289063 0.359375
vt 0.078125 0.324219
vt 0.046875 0.265625
vt 0.019531 0.339844
vt 0.199219 0.476563
vt 0.273438 0.464844
vt 0.074219 0.570313
vt 0.003906 0.464844
vt 0.007813 0.546875
vt 0.492188 0.718750
vt 0.468750 0.632813
vt 0.453125 0.621094
vt 0.437500 0.683594
vt 0.429688 0.601563
vt 0.382813 0.652344
vt 0.390625 0.578125
vt 0.363281 0.574219
vt 0.410156 0.804688
vt 0.453125 0.871094
vt 0.351563 0.703125
vt 0.292969 0.585938
vt 0.335938 0.917969
vt 0.324219 0.851563
vt 0.289063 0.707031
vt 0.281250 0.589844
vt 0.234375 0.656250
vt 0.257813 0.589844
vt 0.199219 0.789063
vt 0.218750 0.886719
vt 0.085938 0.761719
vt 0.148438 0.171875
vt 0.226563 0.136719
vt 0.265625 0.128906
vt 0.281250 0.035156
vt 0.300781 0.070313
vt 0.324219 0.089844
vt 0.503906 0.007813
vt 0.679688 0.070313
vt 0.585938 0.105469
vt 0.777344 0.167969
vt 0.804688 0.882813
vt 0.773438 0.921875
vt 0.957031 0.757813
vt 0.871094 0.890625
vt 0.660156 0.929688
vt 0.703125 0.988281
vt 0.871094 0.894531
vt 0.804688 0.886719
vt 0.660156 0.933594
vt 0.703125 0.992188
vt 0.941406 0.363281
vt 0.566406 0.800781
vt 0.441406 0.480469
vt 0.671875 0.148438
vt 0.316406 0.132813
vt 0.941406 0.359375
vt 0.566406 0.796875
vt 0.441406 0.476563
vt 0.667969 0.148438
vt 0.074219 0.875000
vt 0.031250 0.855469
vt 0.097656 0.863281
vt 0.046875 0.847656
vt 0.039063 0.847656
vt 0.023438 0.855469
vt 0.089844 0.863281
vt 0.070313 0.875000
vt 0.066406 0.832031
vt 0.109375 0.855469
vt 0.089844 0.808594
vt 0.132813 0.835938
vt 0.074219 0.832031
vt 0.097656 0.808594
vt 0.140625 0.835938
vt 0.117188 0.855469
vt 0.171875 0.921875
vt 0.195313 0.917969
vt 0.187500 0.917969
vt 0.164063 0.921875
vt 0.195313 0.914063
vt 0.203125 0.910156
vt 0.210938 0.910156
vt 0.203125 0.914063
vt 0.324219 0.976563
vt 0.316406 0.976563
vt 0.597656 0.785156
vt 0.933594 0.359375
vt 0.574219 0.808594
vt 0.453125 0.433594
vt 0.664063 0.144531
vt 0.445313 0.488281
vt 0.316406 0.136719
vt 0.601563 0.785156
vt 0.937500 0.355469
vt 0.578125 0.808594
vt 0.457031 0.433594
vt 0.667969 0.144531
vt 0.449219 0.488281
vt 0.324219 0.136719

vn -0.004620 -0.928738 -0.370707
vn 0.084668 -0.188241 -0.978466
vn -0.509915 -0.154626 -0.846214
vn -0.006469 -0.791705 -0.610869
vn -0.524023 0.313619 0.791861
vn -0.153855 -0.986012 0.064094
vn 0.438489 -0.786607 0.434713
vn 0.555190 0.304481 0.773987
vn -0.673090 -0.434135 -0.598729
vn -0.498593 0.159192 -0.852093
vn -0.147047 0.076723 -0.986149
vn 0.868932 0.364468 0.334844
vn 0.482878 -0.001768 -0.875686
vn 0.345816 -0.871447 -0.347839
vn 0.664992 -0.438644 -0.604463
vn -0.196552 0.320098 0.926771
vn -0.054916 -0.096215 -0.993844
vn -0.814825 0.474818 0.332579
vn 0.490410 0.133417 -0.861219
vn -0.553876 0.756016 0.348801
vn 0.788902 0.569615 -0.230592
vn 0.634582 0.742608 -0.214103
vn -0.607185 0.756433 -0.243178
vn 0.498117 0.096890 0.861680
vn -0.498117 0.096890 0.861680
vn 0.567251 0.746384 -0.348047
vn -0.544068 0.762748 -0.349580
vn 0.914686 0.302314 0.268244
vn 0.928399 0.371584 0.000373
vn 0.869413 0.357651 0.340891
vn 0.438489 -0.786607 0.434713
vn -0.825313 0.553743 -0.110575
vn -0.856222 -0.012477 0.516457
vn -0.783379 0.594532 0.181243
vn -0.422547 -0.795533 0.434261
vn -0.137575 0.383956 0.913045
vn -0.771142 0.583316 -0.255112
vn 0.651580 0.553419 0.518817
vn 0.538802 0.801450 0.259557
vn -0.515290 0.816495 0.260408
vn 0.012334 0.598017 0.801389
vn 0.018059 0.594008 -0.804256
vn 0.765366 -0.139902 0.628205
vn 0.528050 0.310347 -0.790473
vn -0.636415 0.566083 0.523953
vn -0.263290 0.281882 0.922616
vn -0.808585 -0.230432 0.541379
vn -0.495721 0.312814 -0.810190
vn 0.892204 0.436747 0.114998
vn 0.602450 0.794685 -0.074363
vn -0.582061 0.809552 -0.076363
vn 0.844371 -0.470599 0.256077
vn 0.626767 -0.446329 0.638712
vn 0.540124 -0.752443 0.376956
vn -0.583309 -0.573069 0.575624
vn 0.554437 -0.793579 0.250663
vn -0.529743 -0.808798 0.255378
vn -0.835342 -0.483693 0.261239
vn -0.886133 0.449139 0.114204
vn 0.821083 0.519644 -0.236205
vn 0.565405 0.756895 -0.327759
vn -0.545762 0.769038 -0.332753
vn 0.688390 -0.708536 0.155226
vn 0.932420 0.309814 -0.186034
vn 0.012028 -0.999472 0.030185
vn -0.997161 -0.066776 -0.034811
vn -0.426622 -0.890622 0.157436
vn -0.812569 0.531667 -0.238877
vn -0.020618 0.999494 -0.024235
vn -0.045653 0.975795 0.213871
vn 0.547589 0.763081 0.343298
vn 0.788767 0.543455 0.287233
vn 0.637337 0.292648 0.712853
vn 0.878920 -0.158556 0.449844
vn 0.602325 -0.001730 0.798249
vn 0.971180 0.227547 0.070930
vn 0.516913 0.060080 0.853927
vn -0.542183 0.085629 0.835886
vn 0.605105 -0.170018 0.777780
vn -0.626887 -0.164242 0.761602
vn -0.642690 0.308721 0.701171
vn -0.913533 -0.126150 0.386709
vn -0.792823 0.259903 0.551256
vn -0.582208 -0.226697 0.780796
vn -0.577718 0.739182 0.346198
vn -0.792067 0.535633 0.292793
vn 0.865819 0.497962 -0.048895
vn 0.482750 0.245988 -0.840501
vn 0.525371 0.575533 -0.626696
vn -0.543991 0.567733 -0.617862
vn 0.913726 -0.093007 0.395543
vn 0.696812 -0.054361 0.715191
vn -0.717234 -0.055141 0.694647
vn -0.918197 -0.090310 0.385693
vn -0.714128 0.544643 -0.439756
vn -0.989063 -0.139372 0.048272
vn -0.096278 0.038153 -0.994623
vn 0.495180 -0.075331 -0.865518
vn 0.995388 -0.056859 0.077261
vn 0.876204 0.132632 0.463330
vn 0.703200 0.095550 0.704543
vn -0.623590 0.143663 0.768438
vn -0.913836 0.083939 0.397313
vn -0.994636 -0.072440 0.073832
vn -0.486218 -0.036066 -0.873093
vn 0.788549 0.166355 0.592044
vn 0.579789 0.347556 0.736919
vn -0.473449 0.060634 0.878732
vn -0.749995 0.087891 0.655578
vn -0.991960 -0.015356 0.125617
vn -0.904786 0.281324 0.319717
vn -0.515736 -0.214458 -0.829472
vn 0.047952 -0.393060 -0.918262
vn 0.320134 -0.394754 -0.861211
vn 0.977693 0.115484 0.175441
vn 0.654563 -0.189661 0.731830
vn 0.606904 -0.438280 0.663007
vn -0.613765 -0.284662 0.736383
vn 0.585666 -0.309707 0.749051
vn 0.416599 0.514769 -0.749305
vn -0.556113 -0.316765 0.768374
vn -0.388742 0.520768 -0.760053
vn 0.012572 0.584693 -0.811157
vn 0.010575 -0.340794 0.940079
vn 0.412226 -0.488343 0.769149
vn 0.295724 0.396378 -0.869156
vn -0.387117 -0.488887 0.781748
vn -0.276003 0.401375 -0.873339
vn -0.381942 0.212805 -0.899352
vn 0.401629 0.209569 -0.891502
vn 0.254743 0.060336 0.965125
vn 0.462116 0.006712 -0.886794
vn 0.002177 0.339865 0.940472
vn -0.240436 0.063211 0.968605
vn -0.443535 0.008121 -0.896220
vn 0.010824 -0.145213 -0.989341
vn 0.009635 0.650030 0.759847
vn 0.010488 -0.193669 -0.981011
vn 0.437568 0.597608 0.671862
vn -0.086227 0.616185 0.782867
vn 0.555190 0.304481 0.773987
vn 0.208616 0.318337 0.924738
vn 0.659746 0.689741 0.298317
vn 0.374685 0.795794 0.475734
vn -0.447232 0.585461 0.676180
vn -0.658657 0.349903 0.666137
vn 0.701505 -0.467259 -0.538107
vn -0.766617 0.508969 0.391472
vn -0.645401 0.503965 0.574001
vn 0.623230 -0.112955 -0.773838
vn -0.840623 0.280352 0.463418
vn 0.527919 0.119507 -0.840844
vn -0.908893 0.153305 0.387829
vn 0.898474 -0.245937 -0.363676
vn -0.984503 0.005198 0.175289
vn 0.845656 0.112721 -0.521689
vn 0.662778 0.350747 0.661590
vn 0.734634 0.507793 0.449955
vn 0.836475 0.286000 0.467454
vn 0.903456 0.160317 0.397575
vn 0.978417 0.025444 0.205066
vn -0.865241 0.092396 -0.492768
vn -0.810430 0.312918 -0.495264
vn 0.705369 0.373804 -0.602267
vn -0.664600 0.466396 -0.583765
vn 0.571863 0.503547 -0.647621
vn -0.923825 0.265247 -0.276027
vn -0.941234 0.282371 -0.185322
vn 0.429313 0.620503 -0.656252
vn 0.995154 0.076093 0.062277
vn 0.897734 0.295662 -0.326585
vn 0.889110 -0.097710 0.447142
vn 0.752562 -0.258977 0.605460
vn -0.819220 -0.225532 0.527270
vn 0.726809 -0.221461 0.650157
vn -0.806366 -0.185430 0.561596
vn -0.701706 -0.214873 0.679293
vn -0.996096 0.070531 0.053092
vn -0.835578 0.325237 -0.442753
vn 0.712049 0.415447 -0.566030
vn -0.932413 0.240276 -0.269952
vn 0.885891 0.307759 -0.347103
vn 0.994536 0.090131 0.052679
vn 0.329448 -0.332351 0.883746
vn -0.072423 -0.308021 0.948619
vn -0.462540 -0.307240 0.831661
vn -0.996368 0.073517 0.042969
vn -0.950795 0.243525 -0.191531
vn 0.910893 0.332113 -0.244899
vn -0.073267 -0.354435 0.932206
vn 0.630262 -0.157842 -0.760169
vn 0.763073 -0.092648 -0.639637
vn -0.634186 -0.161929 -0.756033
vn -0.699761 -0.472689 -0.535631
vn -0.626833 -0.107903 -0.771646
vn -0.772415 -0.110345 -0.625459
vn -0.898474 -0.245937 -0.363676
vn -0.508518 0.000878 -0.861051
vn -0.625758 0.275636 -0.729693

f 1/1/1 2/2/3 3/3/4
f 3/3/4 2/2/3 4/4/9
f 5/5/10 2/2/3 6/6/11
f 2/2/3 1/1/2 6/6/11
f 7/7/13 3/8/4 8/9/15
f 7/7/14 1/10/1 3/8/4
f 1/10/2 7/7/13 9/11/17
f 7/7/13 10/12/19 9/11/17
f 11/13/21 12/14/22 13/15/26
f 11/13/21 14/16/28 12/14/22
f 15/17/29 14/16/28 11/13/21
f 6/18/12 14/16/28 15/17/30
f 16/16/32 9/18/18 17/17/34
f 16/16/32 17/17/34 18/13/37
f 16/16/32 18/13/37 12/14/23
f 12/14/23 18/13/37 13/15/27
f 19/19/38 20/20/39 21/21/41
f 22/22/43 19/19/38 21/21/41
f 23/19/45 24/22/46 21/21/41
f 20/20/40 23/19/45 21/21/41
f 25/23/49 26/24/50 20/20/39
f 25/23/49 20/20/39 19/19/38
f 25/23/49 19/19/38 22/22/43
f 27/25/52 25/23/49 22/22/43
f 28/26/53 27/25/52 22/22/43
f 29/27/56 27/25/52 28/26/54
f 30/25/58 28/26/55 24/22/47
f 30/25/58 29/27/57 28/26/55
f 23/19/45 31/23/59 24/22/47
f 31/23/59 30/25/58 24/22/47
f 20/20/40 31/23/59 23/19/45
f 26/24/51 31/23/59 20/20/40
f 32/28/60 33/29/61 26/24/50
f 32/28/60 26/24/50 25/23/49
f 27/25/52 32/28/60 25/23/49
f 34/30/63 32/28/60 27/25/52
f 35/31/65 27/25/52 29/27/56
f 35/31/65 34/30/63 27/25/52
f 30/25/58 35/31/65 29/27/57
f 36/30/66 35/31/65 30/25/58
f 37/28/68 30/25/58 31/23/59
f 37/28/68 36/30/66 30/25/58
f 26/24/51 37/28/68 31/23/59
f 33/29/62 37/28/68 26/24/51
f 32/28/60 13/15/26 33/29/61
f 11/13/21 13/15/26 32/28/60
f 34/30/64 11/13/21 32/28/60
f 15/17/29 11/13/21 34/30/64
f 35/31/65 3/32/6 34/30/63
f 3/32/7 15/17/31 34/30/63
f 3/32/6 35/31/65 36/30/67
f 17/17/35 3/32/6 36/30/67
f 18/13/37 36/30/66 37/28/68
f 18/13/37 17/17/34 36/30/66
f 13/15/27 18/13/37 37/28/68
f 13/15/27 37/28/68 33/29/62
f 38/33/69 39/34/70 40/35/71
f 41/36/72 38/33/69 40/35/71
f 41/36/72 40/35/71 42/37/73
f 43/38/75 41/36/72 42/37/73
f 43/38/75 42/37/73 44/39/77
f 43/38/75 44/39/77 45/40/79
f 46/37/81 47/38/83 44/39/78
f 44/39/78 47/38/84 45/40/80
f 48/35/85 49/36/86 46/37/81
f 49/36/86 47/38/83 46/37/81
f 38/33/69 49/36/86 48/35/85
f 39/34/70 38/33/69 48/35/85
f 50/41/87 51/42/89 38/33/69
f 50/41/87 38/33/69 41/36/72
f 52/43/91 41/36/72 43/38/76
f 52/43/91 50/41/87 41/36/72
f 52/43/91 43/38/75 45/40/79
f 53/44/92 52/43/91 45/40/79
f 47/38/84 54/43/94 45/40/80
f 54/43/94 53/44/93 45/40/80
f 49/36/86 54/43/94 47/38/83
f 55/41/95 54/43/94 49/36/86
f 38/33/69 55/41/95 49/36/86
f 51/42/90 55/41/95 38/33/69
f 56/45/97 51/42/89 50/41/88
f 57/46/98 56/45/97 50/41/88
f 57/46/99 50/41/87 52/43/91
f 57/46/99 52/43/91 58/47/100
f 58/47/100 52/43/91 53/44/92
f 58/47/100 53/44/92 59/48/101
f 54/43/94 60/47/103 53/44/93
f 53/44/93 60/47/103 59/48/102
f 55/41/96 61/46/104 54/43/94
f 54/43/94 61/46/104 60/47/103
f 56/45/97 61/46/105 55/41/95
f 51/42/90 56/45/97 55/41/95
f 62/49/106 58/47/100 63/50/107
f 63/50/107 58/47/100 59/48/101
f 14/16/28 62/49/106 12/14/24
f 62/49/106 63/50/107 12/14/24
f 60/47/103 64/49/109 59/48/102
f 64/49/109 63/50/108 59/48/102
f 64/49/109 16/16/33 12/14/25
f 63/50/108 64/49/109 12/14/25
f 64/49/109 65/51/110 16/16/33
f 65/51/111 9/18/18 16/16/33
f 61/46/104 65/51/110 60/47/103
f 60/47/103 65/51/110 64/49/109
f 65/51/112 66/52/113 9/18/17
f 66/52/113 1/53/2 9/18/17
f 56/45/97 66/52/113 65/51/112
f 61/46/105 56/45/97 65/51/112
f 1/53/2 67/51/114 6/18/11
f 66/52/113 67/51/114 1/53/2
f 66/52/113 56/45/97 57/46/98
f 66/52/113 57/46/98 67/51/114
f 6/18/12 67/51/115 14/16/28
f 67/51/115 62/49/106 14/16/28
f 67/51/115 57/46/99 58/47/100
f 67/51/115 58/47/100 62/49/106
f 68/54/116 22/22/43 69/55/119
f 28/26/53 22/22/43 68/54/117
f 24/22/47 28/26/55 68/54/118
f 24/22/47 68/54/118 70/55/121
f 21/21/42 70/55/122 71/56/123
f 21/21/42 24/22/48 70/55/122
f 69/55/120 21/21/42 71/56/123
f 22/22/44 21/21/42 69/55/120
f 68/54/116 69/55/119 72/57/124
f 69/55/119 73/58/125 72/57/124
f 70/55/121 68/54/118 72/57/124
f 74/58/127 70/55/121 72/57/124
f 75/59/129 71/56/123 74/58/128
f 71/56/123 70/55/122 74/58/128
f 69/55/120 71/56/123 73/58/126
f 71/56/123 75/59/130 73/58/126
f 72/57/124 73/58/125 76/60/131
f 77/61/133 72/57/124 76/60/131
f 72/57/124 77/61/133 78/60/134
f 74/58/127 72/57/124 78/60/134
f 79/62/136 75/59/129 78/60/135
f 75/59/129 74/58/128 78/60/135
f 75/59/130 79/62/136 76/60/132
f 73/58/126 75/59/130 76/60/132
f 80/63/137 77/61/133 76/60/131
f 77/61/133 80/63/137 78/60/134
f 80/63/138 79/62/136 78/60/135
f 79/62/136 80/63/138 76/60/132
f 81/64/139 82/65/140 83/66/142
f 82/65/141 3/67/8 83/66/142
f 84/68/143 85/69/144 81/64/139
f 85/69/144 82/65/140 81/64/139
f 3/70/5 17/65/36 8/4/16
f 17/65/36 86/71/145 8/4/16
f 17/65/34 10/72/20 86/71/145
f 9/73/18 10/72/20 17/65/34
f 86/71/145 87/74/146 8/4/16
f 86/71/145 88/75/148 87/74/146
f 10/72/20 88/75/148 86/71/145
f 88/75/149 89/76/151 87/74/146
f 89/76/151 90/77/153 87/74/146
f 89/76/151 91/78/155 90/77/153
f 92/79/157 81/64/139 83/66/142
f 93/80/158 84/68/143 81/64/139
f 93/80/158 81/64/139 92/79/157
f 94/81/159 93/80/158 92/79/157
f 95/82/160 94/81/159 92/79/157
f 96/78/161 94/81/159 95/82/160
f 97/83/163 98/84/165 99/85/167
f 98/84/165 100/86/168 99/85/167
f 101/87/169 98/88/166 102/89/171
f 98/88/166 97/90/164 102/89/171
f 42/91/74 101/87/170 103/92/172
f 101/87/170 102/89/171 103/92/172
f 104/93/173 42/91/74 105/94/175
f 42/91/74 103/92/172 105/94/175
f 46/95/82 104/96/174 105/97/176
f 106/98/177 46/95/82 105/97/176
f 100/86/168 46/95/82 106/98/178
f 99/85/167 100/86/168 106/98/178
f 107/99/179 97/83/163 108/100/181
f 97/83/163 99/85/167 108/100/181
f 102/89/171 97/90/164 109/101/182
f 97/90/164 107/102/180 109/101/182
f 103/92/172 102/89/171 110/103/183
f 102/89/171 109/101/182 110/103/183
f 105/94/175 103/92/172 111/104/185
f 103/92/172 110/103/184 111/104/185
f 106/98/177 105/97/176 111/105/185
f 112/106/186 106/98/177 111/105/185
f 99/85/167 106/98/178 112/106/187
f 108/100/181 99/85/167 112/106/187
f 107/99/179 108/100/181 113/107/188
f 109/101/182 107/102/180 113/108/189
f 110/103/183 109/101/182 113/108/189
f 111/104/185 110/103/184 113/108/190
f 112/106/186 111/105/185 113/107/190
f 108/100/181 112/106/187 113/107/188
f 114/109/191 7/7/13 8/9/15
f 87/110/147 114/109/191 8/9/15
f 114/109/191 10/12/19 7/7/13
f 114/109/191 88/111/150 10/12/19
f 115/112/192 114/109/191 87/110/147
f 90/113/154 115/112/192 87/110/147
f 89/114/152 88/111/150 114/109/191
f 115/112/192 89/114/152 114/109/191
f 91/115/156 115/112/192 90/113/154
f 91/115/156 89/114/152 115/112/192
f 2/2/3 116/116/193 4/4/9
f 116/116/193 117/117/194 4/4/9
f 5/5/10 116/116/193 2/2/3
f 118/118/195 116/116/193 5/5/10
f 116/116/193 119/119/196 117/117/194
f 119/119/196 120/120/197 117/117/194
f 121/121/198 119/119/196 116/116/193
f 118/118/195 121/121/198 116/116/193
f 119/119/196 96/122/162 120/120/197
f 121/121/199 96/122/162 119/119/196

# End of File
